
Release info:

General
Format                                   : Matroska
Format version                           : Version 2
File size                                : 694 MiB
Duration                                 : 1h 18mn
Overall bit rate mode                    : Variable
Overall bit rate                         : 1 229 Kbps


Video
ID                                       : 1
Format                                   : MPEG-4 Visual
Format profile                           : Advanced Simple@L5
Format settings, BVOP                    : Yes
Format settings, QPel                    : No
Format settings, GMC                     : No warppoints
Format settings, Matrix                  : Default (H.263)
Codec ID                                 : V_MS/VFW/FOURCC / XVID
Codec ID/Hint                            : XviD
Duration                                 : 1h 18mn
Bit rate                                 : 1 074 Kbps
Width                                    : 640 pixels
Height                                   : 352 pixels
Display aspect ratio                     : 16:9
Frame rate mode                          : Constant
Frame rate                               : 25.000 fps
Color space                              : YUV
Chroma subsampling                       : 4:2:0
Bit depth                                : 8 bits
Scan type                                : Progressive
Compression mode                         : Lossy
Bits/(Pixel*Frame)                       : 0.191
Stream size                              : 607 MiB (87%)
Language                                 : English
Default                                  : Yes
Forced                                   : No

Audio
ID                                       : 2
Format                                   : MPEG Audio
Format version                           : Version 1
Format profile                           : Layer 3
Mode                                     : Joint stereo
Mode extension                           : MS Stereo
Muxing mode                              : Header stripping
Codec ID                                 : A_MPEG/L3
Codec ID/Hint                            : MP3
Duration                                 : 1h 18mn
Bit rate mode                            : Variable
Bit rate                                 : 131 Kbps
Nominal bit rate                         : 160 Kbps
Channel(s)                               : 2 channels
Sampling rate                            : 48.0 KHz
Compression mode                         : Lossy
Stream size                              : 73.8 MiB (11%)
Language                                 : English
Default                                  : Yes
Forced                                   : No



Source:
credit to original movie ripper TASTE (Thanks)

IMDB Info:

Brody, his girlfriend Kerry and their friend Leo go hiking in Dartmoor's Wistman's Woods, so named because of its legendary haunted past... 

Director: Richard Parry
Stars: Scoot McNairy, Anna Skellern and Andrew Hawley

Genres: Horror 
 
http://www.imdb.com/title/tt1718714/

Screen Shot:
 
http://www.shotpix.com/images/41824720555771736980.png 
http://www.shotpix.com/images/39929305323764401370.png 
http://www.shotpix.com/images/73182228966109247438.png 
http://www.shotpix.com/images/41641606914512160430.png 
http://www.shotpix.com/images/10808628863938675187.png 
http://www.shotpix.com/images/55032206340795757406.png